<svg xmlns="http://www.w3.org/2000/svg" width="79.568" height="20" viewBox="0 0 79.568 20">
  <path id="Path_4" data-name="Path 4" d="M1230.344,107.848l5.444-15.025a46.28,46.28,0,0,0-8.166.838l-5.131,14.187Zm-.942-19.054-1.046,2.878a46.255,46.255,0,0,1,8.166-.838l1.046-2.878A46.254,46.254,0,0,0,1229.4,88.794Zm-28.375,15.494a39.828,39.828,0,0,0,7.537.681c2.67,0,4.554-.577,4.763-2.409.1-.838-.734-1.467-2.2-2.3-1.676-.942-3.139-1.415-4.606-2.409a3.664,3.664,0,0,1-1.624-4.189c.577-1.936,1.936-3.035,3.977-4.081,2.409-1.2,4.293-1.676,8.952-1.676a41.642,41.642,0,0,1,8.531.838l-.994,2.722a39.828,39.828,0,0,0-7.537-.681c-2.67,0-4.554.577-4.763,2.409-.1.838.734,1.467,2.2,2.3,1.676.942,3.139,1.415,4.606,2.409a3.664,3.664,0,0,1,1.624,4.189c-.577,1.936-1.936,3.035-3.977,4.081-2.409,1.2-4.293,1.676-8.952,1.676a41.643,41.643,0,0,1-8.531-.838Zm-11.83,3.56,4.554-12.512c1.519-4.189-4.029-2.67-5.288-1.676a10.44,10.44,0,0,0-3.4,4.293l-3.612,9.946H1173.6l4.554-12.564c1.519-4.189-4.029-2.67-5.288-1.676a10.439,10.439,0,0,0-3.4,4.293l-3.612,9.946H1158l7.224-19.944c2.514,0,3.873.577,4.971,1.676a3.34,3.34,0,0,1,.838,1.519,22.293,22.293,0,0,1,3.664-1.884,16.635,16.635,0,0,1,6.178-1.311c2.513,0,3.873.577,4.971,1.676a3.34,3.34,0,0,1,.838,1.519,22.288,22.288,0,0,1,3.664-1.884,16.639,16.639,0,0,1,6.178-1.307c2.514,0,3.873.577,4.971,1.676,1.151,1.1,1.1,3.139.681,4.293l-5.131,13.923h-7.85Z" transform="translate(-1158 -87.9)"/>
</svg>
