<svg xmlns="http://www.w3.org/2000/svg" width="98.325" height="30.802" viewBox="0 0 98.325 30.802">
  <path id="Path_7" data-name="Path 7" d="M1438.115,1041l6.15,4.2-13.168,8.467c.667.511,1.429.938,2.1,1.443l13.253-8.419,5.764,3.872-13.1,8.6a12.763,12.763,0,0,0,2.168,1.379l13.427-8.531v-9.317h9.824v18.569l8.712.06v8.724h-18.478v-8.8l-16.509,10.559-16.9-11.347c-1.653,5.24-5.565,9.177-12.056,9.646-4.1.295-8.642-.217-13.3,0v-27.357c5.824.387,12.221-.781,16.836.656a12.8,12.8,0,0,1,8.319,8.6l16.967-10.89Zm-32.806,10.431v9.84c2.343.012,4.118.146,5.507-.92a5.723,5.723,0,0,0,.655-7.611c-1.212-1.395-3.256-1.689-6.092-1.507-.076.012-.07.106-.058.2Zm70.545-8.848h9.826v18.636h8.646v8.724h-18.542v-27.165c-.006-.094-.012-.188.06-.2Z" transform="translate(-1396 -1041)"/>
</svg>
