<svg xmlns="http://www.w3.org/2000/svg" width="36.968" height="36.955" viewBox="0 0 36.968 36.955">
  <path id="Path_5" data-name="Path 5" d="M18.481.01c-.279,0-.558,0-.828.019L13.871,10.422h3.291A2.334,2.334,0,0,1,19.5,13.772l-4.658,12.8H10.927l5-13.723H13l-5,13.723H4.084L9.955,10.4,13.506.683A18.478,18.478,0,0,0,14.2,36.455l3.436-9.431L23.678,10.4H30.9a2.34,2.34,0,0,1,2.339,3.359l-4.09,11.25a2.55,2.55,0,0,1-2.233,1.559h-5.2L17.942,36.945l.549.01A18.478,18.478,0,1,0,18.491,0Zm8.238,12.828L22.6,24.136h2.945l4.119-11.3Z"/>
</svg>
