<svg xmlns="http://www.w3.org/2000/svg" width="30.092" height="36.955" viewBox="0 0 30.092 36.955">
  <path id="Path_6" data-name="Path 6" d="M597.125,467.6a8.352,8.352,0,0,0-3.992,7.032,8.154,8.154,0,0,0,4.959,7.477,20.26,20.26,0,0,1-2.559,5.255c-1.541,2.254-3.137,4.5-5.656,4.543-2.475.045-3.273-1.468-6.1-1.468s-3.715,1.422-6.055,1.514c-2.431.092-4.282-2.435-5.835-4.677-3.173-4.588-5.6-12.967-2.341-18.621a9.046,9.046,0,0,1,7.644-4.633c2.388-.045,4.641,1.606,6.1,1.606,1.44,0,4.021-1.924,7.064-1.7A8.669,8.669,0,0,1,597.125,467.6Zm-8.646-6.7A8.12,8.12,0,0,0,590.4,455a8.279,8.279,0,0,0-5.443,2.8A7.73,7.73,0,0,0,583,463.515,6.851,6.851,0,0,0,588.478,460.9Z" transform="translate(-568 -455)"/>
</svg>
