<svg xmlns="http://www.w3.org/2000/svg" width="102.273" height="20" viewBox="0 0 102.273 20">
  <path id="Union_1" data-name="Union 1" d="M65.45,20H53.989a7.142,7.142,0,0,1-1.274-.071,5.534,5.534,0,0,1-4.54-4.5,5.706,5.706,0,0,1-2.4,3.608,5.608,5.608,0,0,1-2.279.9A7.275,7.275,0,0,1,42.227,20H18.072q0-6.8,0-13.606,12.273.8,24.545,1.6a5.741,5.741,0,0,1,3.5,1.181,5.5,5.5,0,0,1,1.972,2.957V5.784q2.789.142,5.577.287,0,3.414,0,6.827a1.8,1.8,0,0,0,.184.926,1.637,1.637,0,0,0,1.456.88h7.945c.1,0,.2,0,.3,0a4.032,4.032,0,0,0,.589-.021,1.636,1.636,0,0,0,1.232-.949,1.731,1.731,0,0,0,.141-.754q0-3.149,0-6.3,2.789.14,5.575.287,0,3.739,0,7.479H89.555a1.582,1.582,0,0,0,.652-.075.972.972,0,0,0-.012-1.8,1.491,1.491,0,0,0-.51-.079q-6.121-.38-12.246-.752a7.06,7.06,0,0,1-4.269-1.562,5.59,5.59,0,0,1-1.92-3.2c6.468.326,12.936.661,19.4.936a5.67,5.67,0,0,1,5.179,4.807,11.376,11.376,0,0,1,.061,1.711A5.666,5.666,0,0,1,90.3,20H71c0-1.495,0-2.99,0-4.484a5.578,5.578,0,0,1-2.279,3.5A5.474,5.474,0,0,1,65.585,20ZM23.84,14.448H42.223A.974.974,0,0,0,42.65,12.6a1.839,1.839,0,0,0-.735-.121q-6.277-.394-12.557-.78a7.2,7.2,0,0,1-3.333-1.268,5.6,5.6,0,0,1-2.18-3.163C23.832,9.662,23.841,12.055,23.84,14.448ZM0,20Q4.651,12.942,9.3,5.885q3.2.181,6.413.37Q11.31,13.128,6.9,20H0ZM71.15,5.544a5.673,5.673,0,0,1,4.964-5.5A7.642,7.642,0,0,1,77.133,0h7.144Q90.087,0,95.9,0V5.549h-4Q81.523,5.549,71.15,5.544Zm-61.625,0L13.164.026H23.84c0,1.419-.009,2.837.006,4.255a5.657,5.657,0,0,1,2.246-3.26,5.6,5.6,0,0,1,2.745-1C29.078,0,29.32,0,29.562,0H47.207c0,1.85,0,3.7,0,5.549Q28.367,5.548,9.525,5.546Zm55.99,0c0-1.841,0-3.681,0-5.521h5.574v5.52H65.516Zm-17.422,0q0-2.759,0-5.519H53.67v5.52H48.093Zm50.6-.869a2.384,2.384,0,0,1-1.2-1.794,2.449,2.449,0,0,1,.482-1.771,2.4,2.4,0,0,1,1.4-.87,2.442,2.442,0,0,1,2.181.614,2.442,2.442,0,0,1,.691,2.123,2.4,2.4,0,0,1-3.547,1.7ZM99.454.629a1.981,1.981,0,0,0-1.418,1.165,2,2,0,0,0,2.687,2.6,1.978,1.978,0,0,0,1.119-1.463,2.045,2.045,0,0,0-.512-1.729A2.052,2.052,0,0,0,99.867.584,1.863,1.863,0,0,0,99.454.629Zm-.632,3.284V1.332c.157,0,.315,0,.473,0a5.592,5.592,0,0,1,.966.042.676.676,0,0,1,.543.765.764.764,0,0,1-.728.62,1.069,1.069,0,0,1,.457.434c.162.235.305.48.458.72h-.509a5.6,5.6,0,0,0-.6-.949.658.658,0,0,0-.54-.149h-.1c0,.366,0,.732,0,1.1Zm.661-1.452a2.835,2.835,0,0,0,.571-.031.365.365,0,0,0,.034-.717A2.89,2.89,0,0,0,99.5,1.68c-.086,0-.171,0-.256,0q0,.391,0,.781h.244Z" transform="translate(0 0)"/>
</svg>
