<svg xmlns="http://www.w3.org/2000/svg" width="136.537" height="20" viewBox="0 0 136.537 20">
  <path id="Union_2" data-name="Union 2" d="M12.78,17.571c-.855-1.065-1.007-2.573-.418-4.467,1.394-4.524,6.6-7.129,14.232-7.129,4.263,0,7.045.8,8.318,2.365A3.946,3.946,0,0,1,35.68,10.8a3.4,3.4,0,0,1-.266,1.388c-.266.063-15.442,3.435-15.442,3.435a1.156,1.156,0,0,0,.412,1.127,4.908,4.908,0,0,0,2.9.736c3.345.146,7.875-1.806,9.143-2.363-.2.646-1.508,3.491-1.566,3.636-.564.209-3.7,1.211-9.853,1.242l-.32,0C18.3,20,14.422,19.637,12.78,17.571Zm8.492-6.805-1.034,3.878,8.136-3.815a2.085,2.085,0,0,0-.385-1.806,2.988,2.988,0,0,0-2.516-.949A4.079,4.079,0,0,0,21.272,10.766Zm87.1,6.539a4.28,4.28,0,0,1-.5-4.113c1.419-4.587,6.774-7.217,14.707-7.217,4.7,0,7.959.945,9.347,2.719a4.216,4.216,0,0,1,.532,4.086C131.037,17.368,125.682,20,117.751,20,113.016,20,109.8,19.079,108.371,17.306Zm8.585-4.525c-.627,2.041-.627,3.225-.031,3.992a2.523,2.523,0,0,0,2.072.773c2.155,0,3.4-1.216,4.377-4.353C124,11.184,124,10,123.4,9.226a2.49,2.49,0,0,0-2.072-.8C119.143,8.429,117.933,9.671,116.957,12.78ZM61.3,17.306a4.279,4.279,0,0,1-.532-4.113c1.451-4.587,6.805-7.217,14.707-7.217,4.733,0,7.957.945,9.378,2.719a4.139,4.139,0,0,1,.506,4.086C83.938,17.368,78.578,20,70.683,20,65.949,20,62.724,19.079,61.3,17.306Zm8.585-4.525c-.652,2.041-.652,3.225-.031,3.992a2.5,2.5,0,0,0,2.04.773c2.193,0,3.435-1.216,4.379-4.353.622-2.009.652-3.193.032-3.966a2.439,2.439,0,0,0-2.041-.8C72.07,8.429,70.828,9.671,69.884,12.78ZM48.55,19.612l3.079-9.468a1.083,1.083,0,0,0-.266-1.033c-.417-.506-1.305-.83-4.353-.62,0,0-3.605,10.974-3.669,11.121H34.647c.083-.235,4.081-12.452,4.139-12.572A65.894,65.894,0,0,1,49.942,6.007c5.621,0,9.05.678,10.177,2.04a1.712,1.712,0,0,1,.412,1.419L57.25,19.612Zm39.5-.027c-.063-.385-1.6-12.692-1.66-13.167h7.9c.057.387,1.152,9.233,1.152,9.233s6.774-9.054,6.9-9.233h8.4c-.506.68-9.644,12.959-9.8,13.167ZM0,19.585C.177,19.023,5.975.324,6.064,0h8.611C14.5.559,8.7,19.257,8.606,19.585Zm136.125-.266V17.425H136.1l-.683,1.895h-.356l-.678-1.895V19.32h-.417V16.861h.622l.683,1.927.647-1.927h.62V19.32Zm-3.638,0v-2.1h-.8v-.356H133.7v.356h-.8v2.1Z"/>
</svg>
